<svg width="150" height="150" viewBox="0 0 150 150" fill="none" xmlns="http://www.w3.org/2000/svg">
<rect width="150" height="150" fill="black"/>
<path d="M75.0002 33.3333C69.5284 33.3333 64.1102 34.4111 59.055 36.505C53.9998 38.599 49.4065 41.6681 45.5374 45.5372C37.7234 53.3512 33.3335 63.9493 33.3335 75C33.3335 86.0507 37.7234 96.6488 45.5374 104.463C49.4065 108.332 53.9998 111.401 59.055 113.495C64.1102 115.589 69.5284 116.667 75.0002 116.667C86.0508 116.667 96.6489 112.277 104.463 104.463C112.277 96.6488 116.667 86.0507 116.667 75C116.667 69.5283 115.589 64.1101 113.495 59.0549C111.401 53.9996 108.332 49.4063 104.463 45.5372C100.594 41.6681 96.0005 38.599 90.9453 36.505C85.8901 34.4111 80.4719 33.3333 75.0002 33.3333ZM75.0002 59.9583C81.7232 64.3262 89.5662 66.6559 97.5835 66.6667C100.833 66.6667 103.958 66.2917 106.958 65.5833C107.833 68.5417 108.333 71.7083 108.333 75C108.333 93.375 93.3752 108.333 75.0002 108.333C62.5002 108.333 51.6252 101.417 45.8335 91.2083L53.1252 83.3333V79.1667C53.1252 77.7853 53.6739 76.4606 54.6506 75.4838C55.6274 74.5071 56.9522 73.9583 58.3335 73.9583C59.7148 73.9583 61.0396 74.5071 62.0163 75.4838C62.9931 76.4606 63.5418 77.7853 63.5418 79.1667V83.3333H75.0002M91.6668 73.9583C90.2855 73.9583 88.9607 74.5071 87.984 75.4838C87.0072 76.4606 86.4585 77.7853 86.4585 79.1667C86.4585 80.548 87.0072 81.8728 87.984 82.8495C88.9607 83.8263 90.2855 84.375 91.6668 84.375C93.0482 84.375 94.3729 83.8263 95.3497 82.8495C96.3264 81.8728 96.8752 80.548 96.8752 79.1667C96.8752 77.7853 96.3264 76.4606 95.3497 75.4838C94.3729 74.5071 93.0482 73.9583 91.6668 73.9583Z" fill="white"/>
</svg>
