<svg width="150" height="150" viewBox="0 0 150 150" fill="none" xmlns="http://www.w3.org/2000/svg">
<rect width="150" height="150" fill="black"/>
<path d="M117.521 48.0607C102.563 24.9992 72.0218 18.1431 48.337 32.4786C25.2756 46.8141 17.7962 77.9782 32.755 101.04L34.0015 102.91L29.0153 121.608L47.7137 116.622L49.5836 117.868C57.6863 122.231 66.4122 124.724 75.1382 124.724C84.4874 124.724 93.8366 122.231 101.939 117.245C125.001 102.286 131.857 71.7454 117.521 48.0607ZM104.432 96.0534C101.939 99.7931 98.8229 102.286 94.4599 102.91C91.9668 102.91 88.8504 104.156 76.3847 99.1699C65.7889 94.1836 57.063 86.0809 50.8302 76.7317C47.0905 72.3687 45.2206 66.7592 44.5973 61.1496C44.5973 56.1634 46.4672 51.8004 49.5836 48.684C50.8302 47.4374 52.0767 46.8141 53.3233 46.8141H56.4397C57.6863 46.8141 58.9328 46.8141 59.5561 49.3073C60.8027 52.4237 63.9191 59.9031 63.9191 60.5263C64.5424 61.1496 64.5424 62.3962 63.9191 63.0195C64.5424 64.266 63.9191 65.5126 63.2958 66.1359C62.6725 66.7592 62.0492 68.0057 61.426 68.629C60.1794 69.2523 59.5561 70.4989 60.1794 71.7454C62.6725 75.4851 65.7889 79.2248 68.9053 82.3412C72.645 85.4576 76.3847 87.9508 80.7477 89.8206C81.9943 90.4439 83.2408 90.4439 83.8641 89.1973C84.4874 87.9508 87.6038 84.8344 88.8504 83.5878C90.097 82.3412 90.7202 82.3412 91.9668 82.9645L101.939 87.9508C103.186 88.5741 104.432 89.1973 105.056 89.8206C105.679 91.6905 105.679 94.1836 104.432 96.0534Z" fill="white"/>
</svg>
